{
    "asset" : {
        "generator" : "Khronos glTF Blender I/O v1.5.17",
        "version" : "2.0"
    },
    "scene" : 0,
    "scenes" : [
        {
            "name" : "Scene",
            "nodes" : [
                0,
                1,
                2,
                3,
                4,
                5,
                6,
                7,
                8,
                9,
                10,
                11,
                12,
                13,
                14
            ]
        }
    ],
    "nodes" : [
        {
            "name" : "Lamp.001",
            "rotation" : [
                0,
                0,
                -0.7071068286895752,
                0.7071068286895752
            ],
            "translation" : [
                14.703350067138672,
                10.784966468811035,
                0
            ]
        },
        {
            "mesh" : 0,
            "name" : "Topping",
            "translation" : [
                -2.1096911430358887,
                0.735709011554718,
                1.4614996910095215
            ]
        },
        {
            "mesh" : 1,
            "name" : "Torus",
            "translation" : [
                -2.114928960800171,
                0.686617910861969,
                1.4701099395751953
            ]
        },
        {
            "name" : "Lamp",
            "rotation" : [
                0,
                0,
                0.7071068286895752,
                0.7071068286895752
            ],
            "translation" : [
                -18.03499412536621,
                10.784966468811035,
                6.932348251342773
            ]
        },
        {
            "name" : "Camera",
            "rotation" : [
                0.4884301722049713,
                -0.0013048496330156922,
                0.0019388544606044888,
                0.8725998401641846
            ],
            "translation" : [
                -0.5782245993614197,
                8.802278518676758,
                12.927005767822266
            ]
        },
        {
            "mesh" : 2,
            "name" : "Plane.002",
            "translation" : [
                -1.9732152223587036,
                2.005082845687866,
                3.8413429260253906
            ]
        },
        {
            "name" : "Area",
            "translation" : [
                -2.0880815982818604,
                7.62668514251709,
                3.2818822860717773
            ]
        },
        {
            "mesh" : 3,
            "name" : "sprinkle.007",
            "scale" : [
                0.7331218719482422,
                0.7331218719482422,
                0.7331218719482422
            ],
            "translation" : [
                -2.3449625968933105,
                2.2119154930114746,
                3.8380801677703857
            ]
        },
        {
            "mesh" : 4,
            "name" : "sprinkle.006",
            "scale" : [
                0.6846635937690735,
                0.6167447566986084,
                0.6846635937690735
            ],
            "translation" : [
                -2.1964945793151855,
                2.2119154930114746,
                3.8380801677703857
            ]
        },
        {
            "mesh" : 5,
            "name" : "sprinkle.005",
            "scale" : [
                0.630408763885498,
                0.6654891967773438,
                0.630408763885498
            ],
            "translation" : [
                -2.055525779724121,
                2.2119154930114746,
                3.8380801677703857
            ]
        },
        {
            "mesh" : 6,
            "name" : "sprinkle.004",
            "scale" : [
                0.5508438348770142,
                0.5387521386146545,
                0.5508438348770142
            ],
            "translation" : [
                -1.895556926727295,
                2.2119154930114746,
                3.8380801677703857
            ]
        },
        {
            "mesh" : 7,
            "name" : "sprinkle.003",
            "scale" : [
                0.4845191240310669,
                0.5839267373085022,
                0.4845191240310669
            ],
            "translation" : [
                -1.8003206253051758,
                2.2119154930114746,
                3.8380801677703857
            ]
        },
        {
            "mesh" : 8,
            "name" : "sprinkle.002",
            "scale" : [
                0.6047483086585999,
                0.5764252543449402,
                0.6047483086585999
            ],
            "translation" : [
                -1.6951167583465576,
                2.2119154930114746,
                3.8380801677703857
            ]
        },
        {
            "mesh" : 9,
            "name" : "sprinkle.001",
            "scale" : [
                -0.6476820707321167,
                0.6746922731399536,
                -0.6476820707321167
            ],
            "translation" : [
                -1.6192948818206787,
                2.2119154930114746,
                3.8380801677703857
            ]
        },
        {
            "mesh" : 10,
            "name" : "sprinkle",
            "scale" : [
                0.5367182493209839,
                -0.3101983070373535,
                0.5367182493209839
            ],
            "translation" : [
                -2.4943854808807373,
                2.2119154930114746,
                3.8380801677703857
            ]
        }
    ],
    "materials" : [
        {
            "doubleSided" : true,
            "name" : "Material.002",
            "pbrMetallicRoughness" : {}
        },
        {
            "doubleSided" : true,
            "name" : "Material.001",
            "pbrMetallicRoughness" : {}
        },
        {
            "doubleSided" : true,
            "name" : "Material.013",
            "pbrMetallicRoughness" : {}
        },
        {
            "doubleSided" : true,
            "name" : "Material.012",
            "pbrMetallicRoughness" : {}
        },
        {
            "doubleSided" : true,
            "name" : "Material.011",
            "pbrMetallicRoughness" : {}
        },
        {
            "doubleSided" : true,
            "name" : "Material.010",
            "pbrMetallicRoughness" : {}
        },
        {
            "doubleSided" : true,
            "name" : "Material.009",
            "pbrMetallicRoughness" : {}
        },
        {
            "doubleSided" : true,
            "name" : "Material.008",
            "pbrMetallicRoughness" : {}
        },
        {
            "doubleSided" : true,
            "name" : "Material.014",
            "pbrMetallicRoughness" : {}
        },
        {
            "doubleSided" : true,
            "name" : "Material.003",
            "pbrMetallicRoughness" : {}
        }
    ],
    "meshes" : [
        {
            "name" : "Torus.004",
            "primitives" : [
                {
                    "attributes" : {
                        "POSITION" : 0,
                        "NORMAL" : 1
                    },
                    "indices" : 2,
                    "material" : 0
                }
            ]
        },
        {
            "name" : "Torus.002",
            "primitives" : [
                {
                    "attributes" : {
                        "POSITION" : 3,
                        "NORMAL" : 4
                    },
                    "indices" : 5,
                    "material" : 1
                }
            ]
        },
        {
            "name" : "Plane.002",
            "primitives" : [
                {
                    "attributes" : {
                        "POSITION" : 6,
                        "NORMAL" : 7
                    },
                    "indices" : 8
                }
            ]
        },
        {
            "name" : "Cylinder.011",
            "primitives" : [
                {
                    "attributes" : {
                        "POSITION" : 9,
                        "NORMAL" : 10
                    },
                    "indices" : 11,
                    "material" : 2
                }
            ]
        },
        {
            "name" : "Cylinder.010",
            "primitives" : [
                {
                    "attributes" : {
                        "POSITION" : 12,
                        "NORMAL" : 13
                    },
                    "indices" : 11,
                    "material" : 3
                }
            ]
        },
        {
            "name" : "Cylinder.009",
            "primitives" : [
                {
                    "attributes" : {
                        "POSITION" : 14,
                        "NORMAL" : 15
                    },
                    "indices" : 11,
                    "material" : 4
                }
            ]
        },
        {
            "name" : "Cylinder.008",
            "primitives" : [
                {
                    "attributes" : {
                        "POSITION" : 16,
                        "NORMAL" : 17
                    },
                    "indices" : 11,
                    "material" : 5
                }
            ]
        },
        {
            "name" : "Cylinder.007",
            "primitives" : [
                {
                    "attributes" : {
                        "POSITION" : 18,
                        "NORMAL" : 19
                    },
                    "indices" : 11,
                    "material" : 6
                }
            ]
        },
        {
            "name" : "Cylinder.006",
            "primitives" : [
                {
                    "attributes" : {
                        "POSITION" : 20,
                        "NORMAL" : 21
                    },
                    "indices" : 11,
                    "material" : 7
                }
            ]
        },
        {
            "name" : "Cylinder.004",
            "primitives" : [
                {
                    "attributes" : {
                        "POSITION" : 22,
                        "NORMAL" : 23
                    },
                    "indices" : 11,
                    "material" : 8
                }
            ]
        },
        {
            "name" : "Cylinder",
            "primitives" : [
                {
                    "attributes" : {
                        "POSITION" : 24,
                        "NORMAL" : 25
                    },
                    "indices" : 11,
                    "material" : 9
                }
            ]
        }
    ],
    "accessors" : [
        {
            "bufferView" : 0,
            "componentType" : 5126,
            "count" : 324,
            "max" : [
                1.5081337690353394,
                0.550000011920929,
                1.5081337690353394
            ],
            "min" : [
                -1.5081337690353394,
                -0.07264664769172668,
                -1.5081337690353394
            ],
            "type" : "VEC3"
        },
        {
            "bufferView" : 1,
            "componentType" : 5126,
            "count" : 324,
            "type" : "VEC3"
        },
        {
            "bufferView" : 2,
            "componentType" : 5123,
            "count" : 1728,
            "type" : "SCALAR"
        },
        {
            "bufferView" : 3,
            "componentType" : 5126,
            "count" : 576,
            "max" : [
                1.5499999523162842,
                0.550000011920929,
                1.5708540678024292
            ],
            "min" : [
                -1.5499999523162842,
                -0.550000011920929,
                -1.5499999523162842
            ],
            "type" : "VEC3"
        },
        {
            "bufferView" : 4,
            "componentType" : 5126,
            "count" : 576,
            "type" : "VEC3"
        },
        {
            "bufferView" : 5,
            "componentType" : 5123,
            "count" : 3456,
            "type" : "SCALAR"
        },
        {
            "bufferView" : 6,
            "componentType" : 5126,
            "count" : 4,
            "max" : [
                1,
                0,
                1
            ],
            "min" : [
                -1,
                0,
                -1
            ],
            "type" : "VEC3"
        },
        {
            "bufferView" : 7,
            "componentType" : 5126,
            "count" : 4,
            "type" : "VEC3"
        },
        {
            "bufferView" : 8,
            "componentType" : 5123,
            "count" : 6,
            "type" : "SCALAR"
        },
        {
            "bufferView" : 9,
            "componentType" : 5126,
            "count" : 40,
            "max" : [
                0.03207547590136528,
                0.16200286149978638,
                0.03207547590136528
            ],
            "min" : [
                -0.03207547590136528,
                -0.16200286149978638,
                -0.03207547590136528
            ],
            "type" : "VEC3"
        },
        {
            "bufferView" : 10,
            "componentType" : 5126,
            "count" : 40,
            "type" : "VEC3"
        },
        {
            "bufferView" : 11,
            "componentType" : 5123,
            "count" : 228,
            "type" : "SCALAR"
        },
        {
            "bufferView" : 12,
            "componentType" : 5126,
            "count" : 40,
            "max" : [
                0.03207547590136528,
                0.16200286149978638,
                0.03207547590136528
            ],
            "min" : [
                -0.03207547590136528,
                -0.16200286149978638,
                -0.03207547590136528
            ],
            "type" : "VEC3"
        },
        {
            "bufferView" : 13,
            "componentType" : 5126,
            "count" : 40,
            "type" : "VEC3"
        },
        {
            "bufferView" : 14,
            "componentType" : 5126,
            "count" : 40,
            "max" : [
                0.03207547590136528,
                0.16200286149978638,
                0.03207547590136528
            ],
            "min" : [
                -0.03207547590136528,
                -0.16200286149978638,
                -0.03207547590136528
            ],
            "type" : "VEC3"
        },
        {
            "bufferView" : 15,
            "componentType" : 5126,
            "count" : 40,
            "type" : "VEC3"
        },
        {
            "bufferView" : 16,
            "componentType" : 5126,
            "count" : 40,
            "max" : [
                0.03207547590136528,
                0.16200286149978638,
                0.03207547590136528
            ],
            "min" : [
                -0.03207547590136528,
                -0.16200286149978638,
                -0.03207547590136528
            ],
            "type" : "VEC3"
        },
        {
            "bufferView" : 17,
            "componentType" : 5126,
            "count" : 40,
            "type" : "VEC3"
        },
        {
            "bufferView" : 18,
            "componentType" : 5126,
            "count" : 40,
            "max" : [
                0.03207547590136528,
                0.16200286149978638,
                0.03207547590136528
            ],
            "min" : [
                -0.03207547590136528,
                -0.16200286149978638,
                -0.03207547590136528
            ],
            "type" : "VEC3"
        },
        {
            "bufferView" : 19,
            "componentType" : 5126,
            "count" : 40,
            "type" : "VEC3"
        },
        {
            "bufferView" : 20,
            "componentType" : 5126,
            "count" : 40,
            "max" : [
                0.03207547590136528,
                0.16200286149978638,
                0.03207547590136528
            ],
            "min" : [
                -0.03207547590136528,
                -0.16200286149978638,
                -0.03207547590136528
            ],
            "type" : "VEC3"
        },
        {
            "bufferView" : 21,
            "componentType" : 5126,
            "count" : 40,
            "type" : "VEC3"
        },
        {
            "bufferView" : 22,
            "componentType" : 5126,
            "count" : 40,
            "max" : [
                0.03207547590136528,
                0.16200286149978638,
                0.03207547590136528
            ],
            "min" : [
                -0.03207547590136528,
                -0.16200286149978638,
                -0.03207547590136528
            ],
            "type" : "VEC3"
        },
        {
            "bufferView" : 23,
            "componentType" : 5126,
            "count" : 40,
            "type" : "VEC3"
        },
        {
            "bufferView" : 24,
            "componentType" : 5126,
            "count" : 40,
            "max" : [
                0.03207547590136528,
                0.16200286149978638,
                0.03207547590136528
            ],
            "min" : [
                -0.03207547590136528,
                -0.16200286149978638,
                -0.03207547590136528
            ],
            "type" : "VEC3"
        },
        {
            "bufferView" : 25,
            "componentType" : 5126,
            "count" : 40,
            "type" : "VEC3"
        }
    ],
    "bufferViews" : [
        {
            "buffer" : 0,
            "byteLength" : 3888,
            "byteOffset" : 0
        },
        {
            "buffer" : 0,
            "byteLength" : 3888,
            "byteOffset" : 3888
        },
        {
            "buffer" : 0,
            "byteLength" : 3456,
            "byteOffset" : 7776
        },
        {
            "buffer" : 0,
            "byteLength" : 6912,
            "byteOffset" : 11232
        },
        {
            "buffer" : 0,
            "byteLength" : 6912,
            "byteOffset" : 18144
        },
        {
            "buffer" : 0,
            "byteLength" : 6912,
            "byteOffset" : 25056
        },
        {
            "buffer" : 0,
            "byteLength" : 48,
            "byteOffset" : 31968
        },
        {
            "buffer" : 0,
            "byteLength" : 48,
            "byteOffset" : 32016
        },
        {
            "buffer" : 0,
            "byteLength" : 12,
            "byteOffset" : 32064
        },
        {
            "buffer" : 0,
            "byteLength" : 480,
            "byteOffset" : 32076
        },
        {
            "buffer" : 0,
            "byteLength" : 480,
            "byteOffset" : 32556
        },
        {
            "buffer" : 0,
            "byteLength" : 456,
            "byteOffset" : 33036
        },
        {
            "buffer" : 0,
            "byteLength" : 480,
            "byteOffset" : 33492
        },
        {
            "buffer" : 0,
            "byteLength" : 480,
            "byteOffset" : 33972
        },
        {
            "buffer" : 0,
            "byteLength" : 480,
            "byteOffset" : 34452
        },
        {
            "buffer" : 0,
            "byteLength" : 480,
            "byteOffset" : 34932
        },
        {
            "buffer" : 0,
            "byteLength" : 480,
            "byteOffset" : 35412
        },
        {
            "buffer" : 0,
            "byteLength" : 480,
            "byteOffset" : 35892
        },
        {
            "buffer" : 0,
            "byteLength" : 480,
            "byteOffset" : 36372
        },
        {
            "buffer" : 0,
            "byteLength" : 480,
            "byteOffset" : 36852
        },
        {
            "buffer" : 0,
            "byteLength" : 480,
            "byteOffset" : 37332
        },
        {
            "buffer" : 0,
            "byteLength" : 480,
            "byteOffset" : 37812
        },
        {
            "buffer" : 0,
            "byteLength" : 480,
            "byteOffset" : 38292
        },
        {
            "buffer" : 0,
            "byteLength" : 480,
            "byteOffset" : 38772
        },
        {
            "buffer" : 0,
            "byteLength" : 480,
            "byteOffset" : 39252
        },
        {
            "buffer" : 0,
            "byteLength" : 480,
            "byteOffset" : 39732
        }
    ],
    "buffers" : [
        {
            "byteLength" : 40212,
            "uri" : "data:application/octet-stream;base64,"
        }
    ]
}
